<svg xmlns="http://www.w3.org/2000/svg" xmlns:xlink="http://www.w3.org/1999/xlink" width="512" zoomAndPan="magnify" viewBox="0 0 384 383.999986" height="512" preserveAspectRatio="xMidYMid meet" version="1.2"><defs><clipPath id="0528491666"><path d="M 75 0 L 309 0 C 350.421875 0 384 33.578125 384 75 L 384 309 C 384 350.421875 350.421875 384 309 384 L 75 384 C 33.578125 384 0 350.421875 0 309 L 0 75 C 0 33.578125 33.578125 0 75 0 Z M 75 0 "/></clipPath></defs><g id="257ce359cc"><g clip-rule="nonzero" clip-path="url(#0528491666)"><rect x="0" width="384" y="0" height="383.999986" style="fill:#ffffff;fill-opacity:1;stroke:none;"/></g><path style=" stroke:none;fill-rule:nonzero;fill:#3eadac;fill-opacity:1;" d="M 140.019531 259.386719 L 186.257812 179.296875 C 186.878906 178.21875 187.191406 177.058594 187.191406 175.8125 L 187.191406 48.078125 C 187.191406 40.953125 177.753906 38.421875 174.191406 44.597656 L 17.332031 316.285156 C 13.765625 322.457031 20.675781 329.367188 26.847656 325.800781 L 137.46875 261.933594 C 138.546875 261.3125 139.394531 260.464844 140.019531 259.386719 Z M 140.019531 259.386719 "/><path style=" stroke:none;fill-rule:nonzero;fill:#075c62;fill-opacity:1;" d="M 238.074219 269.046875 L 145.597656 269.046875 C 144.351562 269.046875 143.191406 269.359375 142.113281 269.980469 L 31.492188 333.847656 C 25.320312 337.410156 27.847656 346.847656 34.976562 346.847656 L 348.695312 346.847656 C 355.824219 346.847656 358.351562 337.410156 352.179688 333.847656 L 241.558594 269.980469 C 240.480469 269.359375 239.320312 269.046875 238.074219 269.046875 Z M 238.074219 269.046875 "/><path style=" stroke:none;fill-rule:nonzero;fill:#3eadac;fill-opacity:1;" d="M 197.414062 179.296875 L 243.652344 259.386719 C 244.273438 260.460938 245.125 261.3125 246.203125 261.933594 L 356.824219 325.800781 C 362.996094 329.367188 369.90625 322.457031 366.339844 316.285156 L 209.480469 44.597656 C 205.917969 38.421875 196.480469 40.953125 196.480469 48.078125 L 196.480469 175.8125 C 196.480469 177.058594 196.792969 178.21875 197.414062 179.296875 Z M 197.414062 179.296875 "/></g></svg>