<svg xmlns="http://www.w3.org/2000/svg" xmlns:xlink="http://www.w3.org/1999/xlink" width="512" zoomAndPan="magnify" viewBox="0 0 384 383.999986" height="512" preserveAspectRatio="xMidYMid meet" version="1.2"><defs><clipPath id="098fbe28b3"><path d="M 192 0 C 85.960938 0 0 85.960938 0 192 C 0 298.039062 85.960938 384 192 384 C 298.039062 384 384 298.039062 384 192 C 384 85.960938 298.039062 0 192 0 Z M 192 0 "/></clipPath><clipPath id="67412b5c4c"><path d="M 53 72.515625 L 129 72.515625 L 129 222 L 53 222 Z M 53 72.515625 "/></clipPath><clipPath id="447e297a07"><path d="M 68 225 L 365.890625 225 L 365.890625 351.515625 L 68 351.515625 Z M 68 225 "/></clipPath><clipPath id="89afad88b3"><path d="M 78.878906 2.15625 L 357.878906 2.15625 L 357.878906 281.15625 L 78.878906 281.15625 Z M 78.878906 2.15625 "/></clipPath></defs><g id="3864432c0e"><g clip-rule="nonzero" clip-path="url(#098fbe28b3)"><rect x="0" width="384" y="0" height="383.999986" style="fill:#ffffff;fill-opacity:1;stroke:none;"/></g><g clip-rule="nonzero" clip-path="url(#67412b5c4c)"><path style=" stroke:none;fill-rule:nonzero;fill:#075c62;fill-opacity:1;" d="M 70.65625 72.535156 L 68.132812 75.503906 C 64.886719 79.742188 62.121094 85.105469 59.835938 91.589844 C 58.691406 94.832031 57.667969 98.355469 56.765625 102.160156 L 55.503906 108.078125 C 54.578125 113.058594 54.058594 116.53125 53.9375 118.5 C 52.980469 129.511719 54.644531 141.527344 58.929688 154.546875 L 63.261719 164.226562 C 66.375 170.484375 69.925781 176.363281 73.914062 181.855469 C 77.90625 187.347656 82.335938 192.457031 87.210938 197.179688 L 94.847656 203.980469 C 100.160156 208.320312 105.914062 212.277344 112.105469 215.851562 L 122.351562 221.128906 C 125.59375 222.1875 127.675781 222.15625 128.605469 221.035156 C 128.9375 220.574219 129.050781 219.925781 128.949219 219.097656 C 128.636719 218.210938 128.074219 217.082031 127.253906 215.714844 L 114.277344 197.761719 C 111.171875 192.828125 108.417969 187.824219 106.011719 182.75 C 97.667969 161.898438 92.726562 148.363281 91.195312 142.148438 C 88.296875 131.207031 86.894531 125.230469 86.996094 124.21875 C 86.433594 120.628906 86.042969 116.863281 85.832031 112.910156 C 85.617188 108.960938 85.578125 104.828125 85.714844 100.511719 C 86.359375 89.40625 86.957031 82.523438 87.503906 79.867188 L 70.65625 72.535156 "/></g><path style=" stroke:none;fill-rule:nonzero;fill:#075c62;fill-opacity:1;" d="M 19.144531 135.1875 L 18.253906 145.300781 C 17.976562 151.988281 18.335938 158.558594 19.332031 165.011719 L 21.296875 174.609375 C 22.925781 180.949219 25.1875 187.171875 28.082031 193.28125 L 32.902344 202.355469 C 36.4375 208.347656 40.601562 214.222656 45.402344 219.984375 C 50.78125 225.703125 56.328125 230.886719 62.042969 235.542969 C 67.757812 240.199219 73.640625 244.320312 79.691406 247.914062 C 85.742188 251.503906 91.957031 254.566406 98.34375 257.09375 L 108.046875 260.492188 L 118.003906 263.089844 C 127.433594 264.929688 134.933594 265.988281 140.515625 266.261719 C 143.785156 266.597656 151.835938 267.023438 164.664062 267.542969 C 167.339844 267.398438 168.683594 266.757812 168.6875 265.625 L 168.628906 265.179688 C 162.449219 263.441406 153.269531 260.242188 141.097656 255.582031 C 134.316406 252.875 127.988281 250.042969 122.109375 247.09375 C 113.59375 242.375 104.203125 235.449219 93.9375 226.320312 C 74.882812 208.398438 61.351562 193.582031 53.335938 181.875 C 48.683594 175.433594 44.761719 169.179688 41.570312 163.117188 L 37.332031 154.164062 C 34.871094 148.289062 33.144531 142.605469 32.148438 137.109375 L 19.144531 135.1875 "/><path style=" stroke:none;fill-rule:nonzero;fill:#075c62;fill-opacity:1;" d="M 19.675781 230.746094 L 28.210938 240.472656 C 41.132812 254.675781 48.367188 262.390625 49.910156 263.625 C 58.253906 271.902344 64.867188 277.5 69.742188 280.414062 C 75.167969 283.632812 83.976562 287.414062 96.15625 291.757812 C 107.117188 295.359375 119.015625 298.035156 131.851562 299.792969 C 138.269531 300.671875 144.921875 301.320312 151.808594 301.734375 C 154.554688 301.878906 158.03125 301.960938 162.238281 301.980469 L 173.855469 301.660156 C 181.484375 301.226562 188.894531 300.367188 196.074219 299.074219 C 217.621094 295.199219 237.144531 287.441406 254.644531 275.8125 C 252.964844 275.3125 250.480469 275.203125 247.191406 275.484375 C 222.0625 279.042969 200.027344 281.175781 181.089844 281.875 C 157.933594 282.746094 141.164062 281.96875 130.777344 279.542969 C 114.128906 275.160156 100.859375 270.21875 90.976562 264.722656 C 84.785156 261.800781 71.886719 251.136719 52.289062 232.726562 L 19.675781 230.746094 "/><g clip-rule="nonzero" clip-path="url(#447e297a07)"><path style=" stroke:none;fill-rule:nonzero;fill:#075c62;fill-opacity:1;" d="M 363.269531 225.59375 L 363.207031 225.59375 C 361.8125 225.660156 359.976562 226.632812 357.695312 228.507812 C 340.902344 245.121094 323.207031 259.875 304.609375 272.773438 C 273.390625 292.339844 250.019531 304.09375 234.5 308.039062 C 218.847656 313.070312 196.105469 316.601562 166.277344 318.628906 C 149.703125 319.179688 132.625 317.453125 115.042969 313.445312 L 68.535156 316.75 C 85.75 327.023438 103.078125 335.015625 120.511719 340.722656 C 129.230469 343.578125 137.976562 345.863281 146.75 347.574219 L 159.929688 349.714844 C 168.730469 350.855469 177.558594 351.425781 186.410156 351.425781 C 202.363281 351.011719 213.785156 350.070312 220.683594 348.597656 C 229.859375 347.089844 239.066406 344.980469 248.296875 342.265625 C 253.765625 340.789062 259.285156 338.824219 264.855469 336.375 L 273.253906 332.335938 C 278.878906 329.402344 284.554688 325.980469 290.285156 322.074219 C 308.851562 309.417969 325.136719 294.253906 339.132812 276.585938 C 349.167969 262.75 356.785156 250.234375 361.992188 239.042969 C 364.28125 234.480469 365.554688 230.984375 365.8125 228.546875 C 365.707031 226.316406 364.859375 225.332031 363.269531 225.59375 "/></g><g clip-rule="nonzero" clip-path="url(#89afad88b3)"><path style=" stroke:none;fill-rule:nonzero;fill:#3eadac;fill-opacity:1;" d="M 221.714844 76.769531 C 221.929688 78.710938 222.222656 80.644531 222.597656 82.566406 C 222.976562 84.484375 223.429688 86.386719 223.96875 88.269531 C 224.503906 90.148438 225.121094 92.007812 225.8125 93.835938 C 226.507812 95.664062 227.277344 97.460938 228.125 99.226562 C 228.96875 100.992188 229.886719 102.714844 230.878906 104.402344 C 231.871094 106.089844 232.933594 107.730469 234.066406 109.328125 C 235.195312 110.925781 236.390625 112.472656 237.652344 113.964844 C 238.914062 115.460938 240.238281 116.902344 241.621094 118.285156 C 243.003906 119.667969 244.445312 120.992188 245.941406 122.253906 C 247.4375 123.515625 248.980469 124.710938 250.578125 125.84375 C 252.175781 126.972656 253.816406 128.035156 255.503906 129.027344 C 257.191406 130.019531 258.917969 130.9375 260.679688 131.785156 C 262.445312 132.628906 264.242188 133.398438 266.070312 134.09375 C 267.902344 134.789062 269.757812 135.402344 271.636719 135.941406 C 273.519531 136.476562 275.421875 136.933594 277.339844 137.308594 C 279.261719 137.683594 281.195312 137.980469 283.140625 138.191406 C 301.992188 140.257812 326.332031 141.59375 357.75 141.59375 C 326.332031 141.59375 301.992188 142.925781 283.140625 144.992188 C 281.195312 145.207031 279.261719 145.5 277.339844 145.875 C 275.421875 146.253906 273.519531 146.707031 271.636719 147.246094 C 269.757812 147.78125 267.902344 148.398438 266.070312 149.089844 C 264.242188 149.785156 262.445312 150.554688 260.679688 151.402344 C 258.917969 152.246094 257.191406 153.164062 255.503906 154.15625 C 253.816406 155.148438 252.175781 156.210938 250.578125 157.339844 C 248.980469 158.472656 247.4375 159.667969 245.941406 160.929688 C 244.445312 162.191406 243.003906 163.515625 241.621094 164.898438 C 240.238281 166.28125 238.914062 167.722656 237.652344 169.21875 C 236.390625 170.714844 235.195312 172.257812 234.066406 173.855469 C 232.933594 175.453125 231.871094 177.09375 230.878906 178.78125 C 229.886719 180.46875 228.96875 182.191406 228.125 183.957031 C 227.277344 185.722656 226.507812 187.519531 225.8125 189.347656 C 225.121094 191.179688 224.503906 193.035156 223.96875 194.914062 C 223.429688 196.796875 222.976562 198.699219 222.597656 200.617188 C 222.222656 202.539062 221.929688 204.472656 221.714844 206.417969 C 219.652344 225.269531 218.316406 249.609375 218.316406 281.027344 C 218.316406 249.609375 216.980469 225.269531 214.914062 206.417969 C 214.703125 204.472656 214.40625 202.539062 214.03125 200.617188 C 213.65625 198.699219 213.199219 196.796875 212.664062 194.914062 C 212.125 193.035156 211.511719 191.179688 210.816406 189.347656 C 210.121094 187.519531 209.351562 185.722656 208.507812 183.957031 C 207.660156 182.191406 206.742188 180.46875 205.75 178.78125 C 204.757812 177.09375 203.695312 175.453125 202.566406 173.855469 C 201.433594 172.257812 200.238281 170.714844 198.976562 169.21875 C 197.714844 167.722656 196.390625 166.28125 195.007812 164.898438 C 193.625 163.515625 192.183594 162.191406 190.691406 160.929688 C 189.195312 159.667969 187.648438 158.472656 186.050781 157.339844 C 184.453125 156.210938 182.8125 155.148438 181.125 154.15625 C 179.4375 153.164062 177.714844 152.246094 175.949219 151.402344 C 174.183594 150.554688 172.386719 149.785156 170.558594 149.089844 C 168.730469 148.398438 166.875 147.78125 164.992188 147.246094 C 163.109375 146.707031 161.207031 146.253906 159.289062 145.875 C 157.367188 145.5 155.4375 145.207031 153.492188 144.992188 C 134.636719 142.925781 110.296875 141.59375 78.878906 141.59375 C 110.296875 141.59375 134.636719 140.257812 153.492188 138.191406 C 155.4375 137.980469 157.367188 137.683594 159.289062 137.308594 C 161.207031 136.933594 163.109375 136.476562 164.992188 135.941406 C 166.875 135.402344 168.730469 134.789062 170.558594 134.09375 C 172.386719 133.398438 174.183594 132.628906 175.949219 131.785156 C 177.714844 130.9375 179.4375 130.019531 181.125 129.027344 C 182.8125 128.035156 184.453125 126.972656 186.050781 125.84375 C 187.648438 124.710938 189.195312 123.515625 190.691406 122.253906 C 192.183594 120.992188 193.625 119.667969 195.007812 118.285156 C 196.390625 116.902344 197.714844 115.460938 198.976562 113.964844 C 200.238281 112.472656 201.433594 110.925781 202.566406 109.328125 C 203.695312 107.730469 204.757812 106.089844 205.75 104.402344 C 206.742188 102.714844 207.660156 100.992188 208.507812 99.226562 C 209.351562 97.460938 210.121094 95.664062 210.816406 93.835938 C 211.511719 92.007812 212.125 90.148438 212.664062 88.269531 C 213.199219 86.386719 213.65625 84.484375 214.03125 82.566406 C 214.40625 80.644531 214.703125 78.710938 214.914062 76.769531 C 216.980469 57.914062 218.316406 33.574219 218.316406 2.15625 C 218.316406 33.574219 219.652344 57.914062 221.714844 76.769531 Z M 221.714844 76.769531 "/></g></g></svg>